<svg xmlns="http://www.w3.org/2000/svg" width="200" height="73" viewBox="0 0 200 73" fill="none"><g clip-path="url(#clip0_2265_19140)"><path d="M20.88 46.11V54.8C19.13 55.37 17.55 55.65 16.17 55.65C11.37 55.65 7.47 53.85 4.48 50.24C1.49 46.63 0 41.89 0 36.01C0 30.55 1.51 26.04 4.52 22.49C7.53 18.94 11.34 17.16 15.95 17.16C17.74 17.16 19.38 17.4 20.88 17.87V26.58C19.29 26.05 17.79 25.79 16.39 25.79C14.23 25.79 12.44 26.78 11.02 28.75C9.59 30.72 8.88 33.23 8.88 36.29C8.88 39.58 9.6 42.18 11.03 44.09C12.46 46 14.38 46.95 16.77 46.95C17.94 46.95 19.31 46.68 20.88 46.13V46.11Z" fill="white"></path><path d="M55.63 46.11V54.8C53.88 55.37 52.3 55.65 50.92 55.65C46.12 55.65 42.22 53.85 39.23 50.24C36.24 46.63 34.75 41.89 34.75 36.01C34.75 30.55 36.26 26.04 39.27 22.49C42.28 18.94 46.09 17.16 50.7 17.16C52.49 17.16 54.13 17.4 55.63 17.87V26.58C54.04 26.05 52.54 25.79 51.14 25.79C48.98 25.79 47.19 26.78 45.77 28.75C44.34 30.72 43.63 33.23 43.63 36.29C43.63 39.58 44.35 42.18 45.78 44.09C47.21 46 49.13 46.95 51.52 46.95C52.69 46.95 54.06 46.68 55.63 46.13V46.11Z" fill="white"></path><path d="M28.91 0.5H26.47V72.5H28.91V0.5Z" fill="white"></path><mask id="mask0_2265_19140" style="mask-type:luminance" maskUnits="userSpaceOnUse" x="26" y="0" width="3" height="73"><path d="M28.91 0.5H26.47V72.5H28.91V0.5Z" fill="white"></path></mask><g mask="url(#mask0_2265_19140)"><path d="M28.91 0.5H26.47V72.5H28.91V0.5Z" fill="white"></path></g><path d="M61.31 17.04H70.07V55.65H61.31V17.04Z" fill="white"></path><path d="M77.55 54.07V45.51C80.17 47.05 82.37 47.82 84.15 47.82C85.19 47.82 86 47.53 86.6 46.95C87.2 46.37 87.5 45.61 87.5 44.65C87.5 43.92 87.26 43.23 86.78 42.59C86.3 41.95 85.47 41.17 84.29 40.25C81.44 38.05 79.37 36 78.09 34.1C76.81 32.2 76.17 30.09 76.17 27.76C76.17 24.59 77.16 22 79.14 20C81.12 18 83.68 17 86.83 17C89.16 17 91.46 17.5 93.75 18.51V26.73C91.3 25.37 89.31 24.69 87.78 24.69C86.76 24.69 85.96 24.94 85.37 25.45C84.78 25.95 84.48 26.65 84.48 27.53C84.48 29.07 85.85 30.8 88.6 32.73C90.24 33.87 91.89 35.47 93.58 37.53C95.26 39.59 96.1 41.98 96.1 44.7C96.1 47.87 95 50.5 92.8 52.58C90.6 54.66 87.81 55.7 84.43 55.7C82.12 55.7 79.83 55.15 77.56 54.05L77.55 54.07Z" fill="white"></path><path d="M115.56 55.75C111.16 55.75 107.81 54.05 105.5 50.65C103.19 47.25 102.04 42.34 102.04 35.92C102.04 30 103.2 25.38 105.52 22.07C107.84 18.76 111.07 17.1 115.21 17.1C119.63 17.1 123 18.76 125.34 22.08C127.68 25.4 128.84 30.14 128.84 36.3C128.84 42.46 127.69 47.25 125.39 50.65C123.09 54.05 119.81 55.75 115.56 55.75ZM115.26 25.43C112.28 25.43 110.79 28.96 110.79 36.02C110.79 40.57 111.17 43.6 111.92 45.13C112.67 46.65 113.77 47.41 115.21 47.41C116.75 47.41 117.94 46.65 118.77 45.13C119.6 43.61 120.01 40.63 120.01 36.19C120.01 29.02 118.43 25.43 115.27 25.43H115.26Z" fill="white"></path></g><defs><clipPath id="clip0_2265_19140"><rect width="200" height="72" fill="white" transform="translate(0 0.5)"></rect></clipPath></defs></svg>