<svg xmlns="http://www.w3.org/2000/svg" xmlns:xlink="http://www.w3.org/1999/xlink" id="Layer_1" data-name="Layer 1" viewBox="0 0 350.21 276.53"><defs><style>      .cls-1 {        fill: #fff;      }      .cls-2 {        clip-path: url(#clippath);      }    </style><clipPath id="clippath"><rect class="cls-1" x="93.67" y="72.5" width="4.47" height="131.52"></rect></clipPath></defs><path class="cls-1" d="M215.71,134.86h17.64v8.17h-8.92v7.08h7.74v7.97h-7.74v6.99h8.98v8.2h-17.69v-38.41Z"></path><path class="cls-1" d="M238.71,132.73h8.37v40.54h-8.37v-40.54Z"></path><path class="cls-1" d="M252.79,138.86c0-1.23.43-2.27,1.29-3.14s1.9-1.29,3.11-1.29,2.27.43,3.14,1.29c.86.86,1.29,1.91,1.29,3.14s-.43,2.25-1.29,3.12c-.86.87-1.91,1.31-3.14,1.31s-2.22-.44-3.09-1.31-1.31-1.91-1.31-3.12ZM253.02,146.8h8.37v26.47h-8.37v-26.47Z"></path><path class="cls-1" d="M268.13,139.75h8.37v7.05h3.25v6.96h-3.31v19.51h-8.31v-19.56h-3.17v-6.91h3.17v-7.05Z"></path><path class="cls-1" d="M295.56,165.19h7.05c-1.34,5.95-4.7,8.92-10.07,8.92-3.36,0-6.01-1.28-7.97-3.83-1.96-2.55-2.94-6.07-2.94-10.56,0-4.18.98-7.53,2.94-10.06,1.96-2.52,4.56-3.78,7.8-3.78,1.96,0,3.84.61,5.64,1.83,1.8,1.22,3.12,2.83,3.94,4.85.82,2.01,1.28,5.19,1.38,9.52h-13.95c.11,3.93,1.21,5.9,3.28,5.9.71,0,1.34-.26,1.9-.78.56-.52.89-1.19,1.01-2.01ZM289.49,157.53h6.07c-.06-1.86-.32-3.24-.78-4.13s-1.19-1.34-2.19-1.34c-1.11,0-1.91.43-2.39,1.29-.48.86-.72,2.25-.72,4.17Z"></path><path class="cls-1" d="M108.27,102.74h32.48v15.01h-16.43v13h14.25v14.64h-14.25v12.84h16.53v15.06h-32.59v-70.54Z"></path><path class="cls-1" d="M150.89,102.75h16.01v26.15h14.21v-26.15h16.01v70.53h-16.01v-29.32h-14.21v29.32h-16.01v-70.53Z"></path><path class="cls-1" d="M83.47,155.93v15.93c-3.22,1.04-6.1,1.56-8.64,1.56-8.81,0-15.95-3.31-21.43-9.92-5.48-6.61-8.21-15.32-8.21-26.1,0-10.01,2.76-18.28,8.29-24.8,5.53-6.51,12.51-9.77,20.95-9.77,3.28,0,6.3.44,9.04,1.31v15.98c-2.91-.97-5.66-1.46-8.24-1.46-3.95,0-7.24,1.81-9.85,5.43-2.61,3.62-3.92,8.22-3.92,13.82,0,6.03,1.31,10.79,3.94,14.29,2.63,3.5,6.14,5.25,10.53,5.25,2.14,0,4.66-.5,7.54-1.51Z"></path><g><rect class="cls-1" x="93.67" y="72.5" width="4.47" height="131.52"></rect><g class="cls-2"><rect class="cls-1" x="93.67" y="72.5" width="4.47" height="131.52"></rect></g></g><path class="cls-1" d="M213.05,115.44h-6.47l-1.14,3.25h-3.41l5.95-15.97h3.68l5.93,15.97h-3.41l-1.12-3.25ZM212.18,112.99l-2.38-6.82-2.38,6.82h4.76Z"></path><path class="cls-1" d="M222.54,102.53v16.15h-3.23v-16.15h3.23Z"></path></svg>