<?xml version="1.0" standalone="no"?>
<!DOCTYPE svg PUBLIC "-//W3C//DTD SVG 20010904//EN"
 "http://www.w3.org/TR/2001/REC-SVG-20010904/DTD/svg10.dtd">
<svg version="1.0" xmlns="http://www.w3.org/2000/svg"
 width="248.000000pt" height="274.000000pt" viewBox="0 0 248.000000 274.000000"
 preserveAspectRatio="xMidYMid meet">

<g transform="translate(0.000000,274.000000) scale(0.100000,-0.100000)"
fill="#000000" stroke="none">
<path d="M666 2373 c-10 -43 -39 -177 -66 -298 -332 -1508 -410 -1866 -410
-1879 0 -15 34 -16 347 -14 l347 3 53 590 c30 325 75 831 102 1125 27 294 46
538 44 543 -2 4 -93 7 -202 7 l-198 0 -17 -77z"/>
<path d="M1825 2438 c-5 -14 -495 -2245 -495 -2253 0 -3 158 -5 350 -5 193 0
350 2 350 4 0 3 36 408 130 1456 27 311 55 609 60 664 6 54 10 109 10 122 l0
24 -200 0 c-152 0 -202 -3 -205 -12z"/>
</g>
</svg>
